<svg version="1.1" xmlns="http://www.w3.org/2000/svg" xmlns:xlink="http://www.w3.org/1999/xlink"  viewBox="0 0 72 72" enable-background="new 0 0 72 72" xml:space="preserve">
<g>
  <path fill="none" stroke="#E45528" stroke-width="2" stroke-miterlimit="10" d="M24.101,23.945h3.033c0,0,1.116,0.211,1.116,1.728
    l2.265,16.817c0,0,0.069,0.776,1.045,0.776h15.859"/>
  <path fill="none" stroke="#E45528" stroke-width="2" stroke-miterlimit="10" d="M28.551,27.92h18.868c0,0,1.465-0.027,1.465,1.313
    c0,0-0.685,5.795-1.709,7.827c0,0-0.659,1.833-3.311,2.188c0,0-13.593,1.615-13.593,1.432L28.551,27.92z"/>
  <path fill="#E45528" d="M32.571,45.682c0.947,0,1.715,0.774,1.715,1.734c0,0.958-0.768,1.733-1.715,1.733
    c-0.947,0-1.715-0.775-1.715-1.733C30.856,46.456,31.624,45.682,32.571,45.682z"/>
  <path fill="#E45528" d="M43.987,45.682c0.947,0,1.715,0.774,1.715,1.734c0,0.958-0.768,1.733-1.715,1.733s-1.715-0.775-1.715-1.733
    C42.272,46.456,43.04,45.682,43.987,45.682z"/>
</g>
<circle fill="none" stroke="#A1A1A1" stroke-miterlimit="10" cx="36.492" cy="36.547" r="25.667"/>
</svg>
